<svg xmlns="http://www.w3.org/2000/svg" width="24" height="24" viewBox="0 0 322 215">
  <path fill="#7F0000" d="M1.5 0h52L55 1.5v20L53.5 23h-11L41 21.5l-.5-2.5H22v164.5l.5.5H41v-3.5l1.5-1.5h11l1.5 1.5v21l-1.5 1.5h-52L0 201.5V1.5L1.5 0Zm267 1h52l1.5 1.5v200l-1.5 1.5h-52l-1.5-1.5v-21l1.5-1.5h11l1.5 1.5.5 3.5H300V20.5l-.5-.5H281l-1.5 4h-11l-1.5-1.5v-20l1.5-1.5Z"/>
  <path fill="#FE7FFE" d="M42.5 27h52l1.5 1.5v101L55.5 170h-10l-1.5-1.5v-11l34-34V43H59.5l-.5 1.5-1.5 1.5h-15L41 44.5v-16l1.5-1.5Zm65 0h17l1.5 1.5V109h38.5l60.5 60.5v3l-1.5 1.5h-21l-43-43h-29l38.5 39.5-1.5 3.5h-18L106 130.5v-102l1.5-1.5Z"/>
  <path fill="#FE7FFE" d="M162.5 99h22l6 6h45l62.5 62.5v2l-2.5 2.5h-16l-45-45h-20l41.5 42.5v2l-2.5 2.5h-21L161 102.5l1.5-3.5Zm-64 31h3l39.5 39.5 1 4-41.5 41.5h-2L57 173.5v-2L98.5 130Z"/>
</svg>