<svg xmlns="http://www.w3.org/2000/svg" width="24" height="24" viewBox="0 0 3130 3130">
    <g fill="rgb(153,217,234)">
        <!--Bottom-->
        <path
            d="M 1389 3120 c -164 -23 -370 -85 -500 -150 -126 -64 -313 -191 -365 -250 -24 -26 -42 -9 220 -202 463 -341 644 -428 860 -415 198 11 402 118 868 455 187 136 187 136 160 165 -61 65 -238 184 -370 250 -94 47 -265 104 -381 128 -111 23 -388 33 -492 19 z ">
        </path>
        <!--Left-->
        <path
            d="M 232 2378 c -69 -114 -97 -173 -136 -281 -184 -509 -97 -1064 234 -1497 71 -92 221 -238 315 -307 210 -153 495 -266 725 -289 l 70 -7 0 547 c 0 500 -1 546 -16 546 -9 0 -50 16 -90 35 -270 130 -374 473 -220 727 34 57 34 57 -57 106 -129 69 -286 170 -544 348 -122 85 -224 154 -227 154 -2 0 -27 -37 -54 -82 z ">
        </path>
        <!--Right-->
        <path
            d="M2883 2378 c 69 -114 97 -173 136 -281 184 -509 97 -1064 -234 -1497 -71 -92 -221 -238 -315 -307 -210 -153 -495 -266 -725 -289 l -70 -7 0 547 c 0 500 1 546 16 546 9 0 50 16 90 35 270 130 374 473 220 727 -34 57 -34 57 57 106 129 69 286 170 544 348 122 85 224 154 227 154 2 0 27 -37 54 -82 z ">
        </path>

        <circle cx="1565" cy="1570" r="250" />
    </g>
</svg>